<mxfile host="app.diagrams.net" modified="2023-12-13T12:43:05.650Z" agent="Mozilla/5.0 (Windows NT 10.0; Win64; x64) AppleWebKit/537.36 (KHTML, like Gecko) Chrome/120.0.0.0 Safari/537.36" version="22.1.8" etag="Q808T52WxbxeOhlIq4j3" type="github">
  <diagram name="Page-1" id="oWpvVFITGOxgRPjE2onv">
    <mxGraphModel>
      <root>
        <mxCell id="0" />
        <mxCell id="1" parent="0" />
      </root>
    </mxGraphModel>
  </diagram>
</mxfile>
